name ./resultDataOpenSim/trcMotMarkerGrf/sub09/grf-03-04.mot
datacolumns 19
datarows 25
range 0.93600000 1.03200000
endheader

                time	     ground_force_vx	     ground_force_vy	     ground_force_vz	     ground_force_px	     ground_force_py	     ground_force_pz	   l_ground_force_vx	   l_ground_force_vy	   l_ground_force_vz	   l_ground_force_px	   l_ground_force_py	   l_ground_force_pz	     ground_torque_x	     ground_torque_y	     ground_torque_z	   l_ground_torque_x	   l_ground_torque_y	   l_ground_torque_z	
          0.93600000	          0.00000000	          0.00000000	          0.00000000	          0.00000000	          0.00000000	          0.00000000	         -4.40261595	        412.71998235	          6.13421558	          0.13960766	         -0.05000000	          0.02451160	          0.00000000	          0.00000000	          0.00000000	          0.00000000	         -4.10119848	          0.00000000	
          0.94000000	          0.00000000	          0.00000000	          0.00000000	          0.00000000	          0.00000000	          0.00000000	         -0.62650038	        415.70179454	          6.00879648	          0.14039521	         -0.05000000	          0.02481811	          0.00000000	          0.00000000	          0.00000000	          0.00000000	         -4.38371097	          0.00000000	
          0.94400000	          0.00000000	          0.00000000	          0.00000000	          0.00000000	          0.00000000	          0.00000000	          3.44689921	        419.11693785	          6.06387638	          0.14100134	         -0.05000000	          0.02503773	          0.00000000	          0.00000000	          0.00000000	          0.00000000	         -4.64556842	          0.00000000	
          0.94800000	          0.00000000	          0.00000000	          0.00000000	          0.00000000	          0.00000000	          0.00000000	          7.71823705	        423.16983064	          6.29392086	          0.14139782	         -0.05000000	          0.02516006	          0.00000000	          0.00000000	          0.00000000	          0.00000000	         -4.88352523	          0.00000000	
          0.95200000	          0.00000000	          0.00000000	          0.00000000	          0.00000000	          0.00000000	          0.00000000	         12.08279847	        428.07696287	          6.65815050	          0.14160718	         -0.05000000	          0.02519297	          0.00000000	          0.00000000	          0.00000000	          0.00000000	         -5.09649957	          0.00000000	
          0.95600000	          0.00000000	          0.00000000	          0.00000000	          0.00000000	          0.00000000	          0.00000000	         16.42631547	        434.06140554	          7.08561028	          0.14169668	         -0.05000000	          0.02516123	          0.00000000	          0.00000000	          0.00000000	          0.00000000	         -5.28508124	          0.00000000	
          0.96000000	          0.00000000	          0.00000000	          0.00000000	          0.00000000	          0.00000000	          0.00000000	         20.62661028	        441.28320705	          7.49798789	          0.14173438	         -0.05000000	          0.02509384	          0.00000000	          0.00000000	          0.00000000	          0.00000000	         -5.45072946	          0.00000000	
          0.96400000	          0.00000000	          0.00000000	          0.00000000	          0.00000000	          0.00000000	          0.00000000	         24.56082667	        449.77944717	          7.84159344	          0.14177258	         -0.05000000	          0.02502670	          0.00000000	          0.00000000	          0.00000000	          0.00000000	         -5.59493521	          0.00000000	
          0.96800000	          0.00000000	          0.00000000	          0.00000000	          0.00000000	          0.00000000	          0.00000000	         28.12005919	        459.49188412	          8.10696198	          0.14185170	         -0.05000000	          0.02500570	          0.00000000	          0.00000000	          0.00000000	          0.00000000	         -5.71867091	          0.00000000	
          0.97200000	          0.00000000	          0.00000000	          0.00000000	          0.00000000	          0.00000000	          0.00000000	         31.22309518	        470.33386702	          8.32367843	          0.14198082	         -0.05000000	          0.02505867	          0.00000000	          0.00000000	          0.00000000	          0.00000000	         -5.82236264	          0.00000000	
          0.97600000	          0.00000000	          0.00000000	          0.00000000	          0.00000000	          0.00000000	          0.00000000	         33.81459448	        482.21557561	          8.54131541	          0.14212683	         -0.05000000	          0.02516060	          0.00000000	          0.00000000	          0.00000000	          0.00000000	         -5.90635936	          0.00000000	
          0.98000000	          0.00000000	          0.00000000	          0.00000000	          0.00000000	          0.00000000	          0.00000000	         35.86311969	        495.02809427	          8.80822429	          0.14223795	         -0.05000000	          0.02525752	          0.00000000	          0.00000000	          0.00000000	          0.00000000	         -5.97153843	          0.00000000	
          0.98400000	          0.00000000	          0.00000000	          0.00000000	          0.00000000	          0.00000000	          0.00000000	         37.38004084	        508.63394409	          9.15009707	          0.14230257	         -0.05000000	          0.02531838	          0.00000000	          0.00000000	          0.00000000	          0.00000000	         -6.01952672	          0.00000000	
          0.98800000	          0.00000000	          0.00000000	          0.00000000	          0.00000000	          0.00000000	          0.00000000	         38.44364321	        522.86691359	          9.56118190	          0.14237690	         -0.05000000	          0.02534880	          0.00000000	          0.00000000	          0.00000000	          0.00000000	         -6.05224959	          0.00000000	
          0.99200000	          0.00000000	          0.00000000	          0.00000000	          0.00000000	          0.00000000	          0.00000000	         39.20124611	        537.53606891	         10.02394586	          0.14256606	         -0.05000000	          0.02537776	          0.00000000	          0.00000000	          0.00000000	          0.00000000	         -6.07105356	          0.00000000	
          0.99600000	          0.00000000	          0.00000000	          0.00000000	          0.00000000	          0.00000000	          0.00000000	         39.85032415	        552.44884043	         10.53992279	          0.14291526	         -0.05000000	          0.02542107	          0.00000000	          0.00000000	          0.00000000	          0.00000000	         -6.07604737	          0.00000000	
          1.00000000	          0.00000000	          0.00000000	          0.00000000	          0.00000000	          0.00000000	          0.00000000	         40.61765568	        567.41301643	         11.13538836	          0.14337940	         -0.05000000	          0.02547706	          0.00000000	          0.00000000	          0.00000000	          0.00000000	         -6.06616958	          0.00000000	
          1.00400000	          0.00000000	          0.00000000	          0.00000000	          0.00000000	          0.00000000	          0.00000000	         41.73386418	        582.22018464	         11.83769993	          0.14385938	         -0.05000000	          0.02553535	          0.00000000	          0.00000000	          0.00000000	          0.00000000	         -6.03990218	          0.00000000	
          1.00800000	          0.00000000	          0.00000000	          0.00000000	          0.00000000	          0.00000000	          0.00000000	         43.38674432	        596.67254529	         12.65263832	          0.14427460	         -0.05000000	          0.02560075	          0.00000000	          0.00000000	          0.00000000	          0.00000000	         -5.99606489	          0.00000000	
          1.01200000	          0.00000000	          0.00000000	          0.00000000	          0.00000000	          0.00000000	          0.00000000	         45.67511292	        610.61745201	         13.56652272	          0.14458982	         -0.05000000	          0.02569286	          0.00000000	          0.00000000	          0.00000000	          0.00000000	         -5.93421326	          0.00000000	
          1.01600000	          0.00000000	          0.00000000	          0.00000000	          0.00000000	          0.00000000	          0.00000000	         48.60880046	        623.94840740	         14.56552903	          0.14481793	         -0.05000000	          0.02580611	          0.00000000	          0.00000000	          0.00000000	          0.00000000	         -5.85466863	          0.00000000	
          1.02000000	          0.00000000	          0.00000000	          0.00000000	          0.00000000	          0.00000000	          0.00000000	         52.15047207	        636.60877914	         15.64517676	          0.14497806	         -0.05000000	          0.02591923	          0.00000000	          0.00000000	          0.00000000	          0.00000000	         -5.75852705	          0.00000000	
          1.02400000	          0.00000000	          0.00000000	          0.00000000	          0.00000000	          0.00000000	          0.00000000	         56.24803068	        648.60002354	         16.79268194	          0.14508816	         -0.05000000	          0.02601592	          0.00000000	          0.00000000	          0.00000000	          0.00000000	         -5.64779678	          0.00000000	
          1.02800000	          0.00000000	          0.00000000	          0.00000000	          0.00000000	          0.00000000	          0.00000000	         60.83151601	        659.96096594	         17.95900326	          0.14516543	         -0.05000000	          0.02608991	          0.00000000	          0.00000000	          0.00000000	          0.00000000	         -5.52537486	          0.00000000	
          1.03200000	          0.00000000	          0.00000000	          0.00000000	          0.00000000	          0.00000000	          0.00000000	         65.79697911	        670.72695897	         19.06580992	          0.14525210	         -0.05000000	          0.02615097	          0.00000000	          0.00000000	          0.00000000	          0.00000000	         -5.39444544	          0.00000000	
